HIERARCHY
ROOT Hips
{
	OFFSET 0.00000 0.00000 0.00000
	CHANNELS 6 Xposition Yposition Zposition Yrotation Zrotation Xrotation 
	JOINT Lumbar
	{
		OFFSET 0 0 0
		CHANNELS 3 Zrotation Xrotation Yrotation
		JOINT Neck
		{
			OFFSET 0.00 0.2701 0.00
			CHANNELS 3 Zrotation Xrotation Yrotation
			End Site
			{
				OFFSET 0.00 0.1379 0.00
			}
		}
		JOINT RightShoulder
		{
			OFFSET 0.0119 0.2289 0.1181
			CHANNELS 3 Zrotation Xrotation Yrotation
			JOINT RightElbow
			{
				OFFSET 0.00 -0.1475 0.00
				CHANNELS 2 Zrotation Yrotation
				JOINT RightWrist
				{
					OFFSET 0.00 -0.1605 0.00
					CHANNELS 2 Zrotation Xrotation
					End Site
					{
						OFFSET 0.0040 -0.1068 0.0006
					}
				}
			}
		}
		JOINT LeftShoulder
		{
			OFFSET 0.0119 0.2289 -0.1181
			CHANNELS 3 Zrotation Xrotation Yrotation
			JOINT LeftElbow
			{
				OFFSET 0.00 -0.1475 0.00
				CHANNELS 2 Zrotation Yrotation
				JOINT LeftWrist
				{
					OFFSET 0.00 -0.1605 0.00
					CHANNELS 2 Zrotation Xrotation
					End Site
					{
						OFFSET 0.0040 -0.1068 -0.0006
					}
				}
			}
		}
	}
	JOINT RightHip
	{
		OFFSET 0.0316 -0.0424 0.0458
		CHANNELS 3 Zrotation Xrotation Yrotation
		JOINT RightKnee
		{
			OFFSET 0.00 -0.2438 0.00
			CHANNELS 1 Zrotation
			JOINT RightAnkle
			{
				OFFSET 0.00 -0.2449 0.00
				CHANNELS 3 Zrotation Xrotation Yrotation
				End Site
				{
					OFFSET 0.1237 -0.0542 0.0051
				}
			}
		}
	}
	JOINT LeftHip
	{
		OFFSET 0.0316 -0.0424 -0.0458
		CHANNELS 3 Zrotation Xrotation Yrotation
		JOINT LeftKnee
		{
			OFFSET 0.00 -0.2438 0.00
			CHANNELS 1 Zrotation
			JOINT LeftAnkle
			{
				OFFSET 0.00 -0.2449 0.00
				CHANNELS 3 Zrotation Xrotation Yrotation
				End Site
				{
					OFFSET 0.1237 -0.0542 -0.0051
				}
			}
		}
	}
}
MOTION
Frames: 22
Frame Time: 0.02
-0.02647 0.57522 -0.05341 494.68864 0 3.00739 15.10032 -7.29215 -5.75404 -27.80325 3.37352 3.54825 4.26103 -19.5411 -27.80437 11.58715 95.15217 -21.82331 -5.40775 -12.54491 19.99533 -32.0355 80.56359 -111.25596 -75.22934 21.88683 6.80913 -7.81096 -20.00654 -61.17153 -38.64177 -5.92817 9.5756 -1.48438 -12.59551 23.08263 -14.59698 9.61758 5.41932 6.32345
-0.02713 0.57529 -0.05335 495.38433 0 3.09495 15.01181 -7.41822 -5.19221 -27.54414 2.93235 3.53626 4.11656 -18.95939 -27.84794 11.52489 94.71871 -21.32452 -5.59499 -12.5656 20.71031 -32.16031 80.90183 -111.3226 -75.22934 21.88683 6.58954 -7.85042 -20.32623 -60.99496 -38.63956 -5.88643 9.68286 -1.55807 -12.62469 22.85631 -14.62091 9.64631 5.09104 5.73289
-0.02779 0.57535 -0.05342 496.09827 0 3.20118 14.92403 -7.57539 -4.66673 -27.31027 2.51195 3.54004 3.98013 -18.39638 -27.87317 11.45426 94.1854 -20.81748 -5.82393 -12.57487 21.37553 -32.25456 81.2288 -111.44691 -75.22934 21.88683 6.36168 -7.89096 -20.63021 -60.81337 -38.64495 -5.84069 9.80082 -1.6334 -12.65664 22.61819 -14.66221 9.68517 4.74202 5.12463
-0.02844 0.57542 -0.05344 496.80369 0 3.2984 14.8366 -7.71907 -4.12126 -27.07205 2.08055 3.53383 3.84485 -17.82065 -27.90127 11.38788 93.7239 -20.3226 -6.0229 -12.58466 22.0653 -32.36106 81.56342 -111.54302 -75.22934 21.88683 6.13504 -7.92874 -20.94146 -60.63134 -38.64352 -5.79483 9.9122 -1.70772 -12.68695 22.37175 -14.69571 9.71685 4.40789 4.53687
-0.0291 0.57547 -0.05342 497.50864 0 3.39795 14.74698 -7.85971 -3.58874 -26.80182 1.65487 3.54037 3.68653 -17.26075 -27.95151 11.31918 93.14972 -19.79271 -6.26695 -12.61424 22.74959 -32.47709 81.88823 -111.64631 -75.22934 21.88683 5.91891 -7.97452 -21.25245 -60.459 -38.658 -5.75686 10.02865 -1.78301 -12.72015 22.17138 -14.72854 9.75834 4.05158 3.90829
-0.02975 0.57556 -0.05352 498.21937 0 3.49732 14.66153 -8.01433 -3.03782 -26.60474 1.22245 3.52264 3.57902 -16.67312 -27.95208 11.25332 92.7849 -19.33306 -6.42838 -12.60036 23.43284 -32.56482 82.23059 -111.74852 -75.22934 21.88683 5.67933 -8.00511 -21.55867 -60.26788 -38.63762 -5.70086 10.13766 -1.857 -12.74765 21.87923 -14.7664 9.78249 3.73465 3.35406
-0.03039 0.57578 -0.05394 498.9424 0 3.58809 14.59064 -8.19822 -2.43644 -26.60677 0.76759 3.44853 3.61189 -16.0041 -27.81464 11.19973 93.04774 -19.0762 -6.34121 -12.46307 24.12046 -32.58473 82.62258 -111.83706 -75.22934 21.88683 5.37442 -7.98614 -21.87287 -60.00461 -38.55619 -5.6058 10.22657 -1.92313 -12.75693 21.30547 -14.82171 9.75296 3.5512 3.03406
-0.03101 0.57603 -0.05447 499.67056 0 3.67865 14.52302 -8.39547 -1.81416 -26.68116 0.30517 3.34709 3.69569 -15.30706 -27.62897 11.14901 93.52032 -18.88917 -6.1715 -12.28348 24.80928 -32.57668 83.03271 -111.92194 -75.22934 21.88682 5.0476 -7.95357 -22.17931 -59.72799 -38.43386 -5.49143 10.30736 -1.98834 -12.76051 20.6466 -14.88037 9.70644 3.4048 2.78382
-0.03163 0.57626 -0.05495 500.39623 0 3.77152 14.45199 -8.5877 -1.19546 -26.72077 -0.15452 3.2484 3.75523 -14.62302 -27.46887 11.09546 93.88113 -18.66558 -6.04633 -12.12728 25.50023 -32.57882 83.43552 -112.00669 -75.22934 21.88681 4.73131 -7.93185 -22.47876 -59.46973 -38.30475 -5.37919 10.39019 -2.05679 -12.76772 20.04857 -14.93227 9.66987 3.22842 2.48379
-0.03228 0.57653 -0.05545 501.1237 0 3.85558 14.39002 -8.77642 -0.602 -26.76969 -0.61066 3.18999 3.81957 -13.93758 -27.29244 11.04783 94.30863 -18.4616 -5.89273 -11.95325 26.17793 -32.58923 83.83433 -112.10168 -75.22934 21.8868 4.40843 -7.8894 -22.82396 -59.15357 -38.27835 -5.29333 10.48037 -2.11438 -12.77074 19.35724 -15.00608 9.62389 3.10589 2.25854
-0.03286 0.57671 -0.05592 501.84777 0 3.95784 14.3088 -8.97538 0.04824 -26.81548 -1.07609 3.04236 3.88606 -13.24928 -27.13911 10.98896 94.64738 -18.23407 -5.77843 -11.80627 26.88451 -32.57786 84.2456 -112.17288 -75.22934 21.8868 4.09903 -7.88816 -23.0698 -58.96223 -38.03403 -5.14991 10.55314 -2.1931 -12.78101 18.83916 -15.0358 9.59379 2.88139 1.89574
-0.03335 0.5766 -0.05632 502.56665 0 4.10887 14.18363 -9.19771 0.86013 -26.84026 -1.56664 2.64308 3.94505 -12.55068 -27.05866 10.89605 94.69891 -17.91933 -5.79065 -11.74596 27.66744 -32.49881 84.68927 -112.18611 -75.22934 21.8868 3.79075 -7.99273 -23.06401 -59.05459 -37.14796 -4.83589 10.58009 -2.34118 -12.81305 18.82824 -14.93423 9.60766 2.35791 1.12525
-0.03377 0.57639 -0.05668 503.28094 0 4.27814 14.03712 -9.42984 1.72635 -26.85842 -2.06605 2.15717 4.0047 -11.85194 -27.00356 10.7923 94.65286 -17.57955 -5.84551 -11.71403 28.48014 -32.40172 85.1443 -112.17383 -75.22934 21.88681 3.50461 -8.14088 -22.95469 -59.28389 -36.05327 -4.46769 10.58969 -2.50852 -12.85241 18.99206 -14.78953 9.63864 1.73305 0.21736
-0.03418 0.57623 -0.05704 503.99351 0 4.44029 13.8938 -9.65867 2.56186 -26.8758 -2.56074 1.71858 4.06455 -11.15905 -26.93895 10.69497 94.64578 -17.25452 -5.88203 -11.66821 29.28163 -32.3224 85.59279 -112.16861 -75.22934 21.88682 3.2355 -8.27705 -22.8792 -59.49412 -35.08684 -4.13508 10.60699 -2.65998 -12.88822 19.07223 -14.67049 9.66455 1.15916 -0.62215
-0.03476 0.57606 -0.05747 504.72184 0 4.59858 13.77801 -9.88394 3.42518 -26.91113 -3.05896 1.24516 4.1237 -10.44021 -26.86485 10.59106 94.66796 -16.91736 -5.91112 -11.62541 30.07369 -32.20142 86.04835 -112.18296 -75.22934 21.88683 2.85106 -8.38161 -22.85928 -59.52645 -33.97779 -3.75553 10.6248 -2.84159 -12.92508 19.17207 -14.52682 9.67907 0.56246 -1.48978
-0.03496 0.57588 -0.05774 505.41681 0 4.76791 13.59987 -10.11775 4.24108 -26.90729 -3.55142 0.82448 4.18426 -9.77646 -26.8163 10.49869 94.60419 -16.59905 -5.96709 -11.58319 30.89202 -32.1636 86.49085 -112.14986 -75.22934 21.88683 2.7126 -8.56017 -22.69909 -59.95603 -33.11673 -3.46107 10.63751 -2.9649 -12.9612 19.26757 -14.42313 9.72083 -0.00705 -2.3255
-0.03413 0.57568 -0.05759 506.01554 0 4.97466 13.2536 -10.38129 4.93097 -26.78991 -4.02932 0.56694 4.24401 -9.25889 -26.84033 10.4371 94.31781 -16.3347 -6.08521 -11.5394 31.77931 -32.35764 86.90091 -111.9974 -75.22934 21.88684 3.24614 -8.95279 -22.17663 -61.49881 -32.99249 -3.41565 10.64065 -2.92277 -12.9967 19.36212 -14.44991 9.84019 -0.51377 -3.10013
-0.03291 0.57547 -0.05728 506.582 0 5.18988 12.84551 -10.65142 5.56777 -26.63416 -4.50033 0.36616 4.30554 -8.79809 -26.88826 10.38808 93.94867 -16.0906 -6.22942 -11.49472 32.69121 -32.63674 87.29601 -111.79699 -75.22934 21.88683 4.02672 -9.41461 -21.51636 -63.42603 -33.1251 -3.45771 10.63923 -2.82103 -13.03067 19.43809 -14.51709 9.98519 -0.98334 -3.82788
-0.03186 0.57528 -0.05706 507.16638 0 5.39353 12.4665 -10.9128 6.21683 -26.50031 -4.97227 0.14211 4.36926 -8.31525 -26.91963 10.33587 93.62273 -15.83967 -6.36342 -11.44818 33.58958 -32.87819 87.6938 -111.61505 -75.22934 21.88684 4.69578 -9.8315 -20.9198 -65.14643 -33.13962 -3.45926 10.63975 -2.7467 -13.06318 19.48592 -14.55889 10.11428 -1.44524 -4.53648
-0.03086 0.57504 -0.05679 507.73603 0 5.62981 12.08264 -11.19873 6.91791 -26.34784 -5.4542 -0.09512 4.42123 -7.81618 -26.97442 10.27305 93.27109 -15.57799 -6.4927 -11.41215 34.4994 -33.11385 88.10987 -111.44648 -75.22934 21.88683 5.3633 -10.30698 -20.31634 -67.01285 -33.15237 -3.46198 10.64024 -2.67265 -13.10483 19.68839 -14.62685 10.26209 -2.0125 -5.41673
-0.02965 0.57489 -0.05658 508.32982 0 5.80065 11.69441 -11.43507 7.49732 -26.22461 -5.91308 -0.29092 4.49699 -7.3648 -26.98768 10.23493 92.95312 -15.34372 -6.63644 -11.35369 35.3902 -33.38311 88.48349 -111.23868 -75.22934 21.88684 6.09133 -10.67611 -19.69428 -68.65751 -33.23277 -3.48389 10.63992 -2.58243 -13.12725 19.56945 -14.65295 10.37659 -2.35246 -5.93141
-0.02793 0.57504 -0.0566 508.98823 0 5.78312 11.31032 -11.53247 7.7539 -26.19668 -6.31442 -0.38004 4.64795 -7.02753 -26.86327 10.26661 92.7605 -15.18108 -6.82237 -11.23271 36.22765 -33.71455 88.74966 -110.938 -75.22934 21.88686 6.93622 -10.7363 -19.06752 -69.66087 -33.4352 -3.53608 10.63857 -2.47272 -13.09504 18.5076 -14.53181 10.39405 -2.05373 -5.40812
